<?xml version="1.0" standalone="no"?><!DOCTYPE svg PUBLIC "-//W3C//DTD SVG 1.1//EN" "http://www.w3.org/Graphics/SVG/1.1/DTD/svg11.dtd"><svg t="1707310860003" class="icon" viewBox="0 0 1024 1024" version="1.1" xmlns="http://www.w3.org/2000/svg" p-id="4346" width="200" height="200" xmlns:xlink="http://www.w3.org/1999/xlink"><path d="M512 0a512 512 0 1 1 0 1024A512 512 0 0 1 512 0z m-3.328 256a45.12 45.12 0 0 0-45.12 45.12l-0.064 167.488h-165.12a43.52 43.52 0 0 0-6.4 86.528l6.4 0.448h165.12v167.296c0 22.848 17.024 41.728 39.04 44.736l6.144 0.384c24.896 0 45.056-20.224 45.056-45.12V555.584h169.6a43.52 43.52 0 0 0 0-86.912l-169.6-0.064V301.12a45.12 45.12 0 0 0-38.976-44.736z" fill="#92ceed" p-id="4347"></path></svg>